<svg width="116" height="146" viewBox="0 0 116 146" fill="none" xmlns="http://www.w3.org/2000/svg" xmlns:xlink="http://www.w3.org/1999/xlink">
<path d="M98.138,0L39.119,0C38.098,0 37.078,0.17 36.057,0.51C35.036,0.85 34.186,1.53 33.505,2.21L2.552,31.954C1.701,32.634 1.191,33.654 0.68,34.674C0.17,35.694 0,36.714 0,37.904L0,127.985C0,138.013 7.994,146 18.028,146L97.968,146C108.003,146 115.996,138.011 115.996,127.985L115.996,118.297L115.997,30.595L115.997,18.017C116.167,8.159 108.173,0.001 98.139,0.001L98.138,0ZM107.662,27.704L107.662,127.811C107.662,133.079 103.41,137.329 98.136,137.329L18.197,137.329C12.925,137.329 8.672,133.081 8.672,127.811L8.673,40.281L23.811,40.281C33.676,40.281 41.839,32.122 41.839,22.265L41.839,8.498L98.309,8.498C103.581,8.498 107.834,12.747 107.834,18.016L107.833,27.704L107.662,27.704ZM31.804,102.658L84.53,102.658L84.53,111.156L31.804,111.156L31.804,102.658ZM58.168,98.069L38.437,78.354L44.39,72.405L53.915,81.923L53.915,40.112L62.42,40.112L62.42,81.751L71.945,72.233L77.898,78.182L58.168,98.069Z" fill="#000000"/>
<path d="M98.138,0L39.119,0C38.098,0 37.078,0.17 36.057,0.51C35.036,0.85 34.186,1.53 33.505,2.21L2.552,31.954C1.701,32.634 1.191,33.654 0.68,34.674C0.17,35.694 0,36.714 0,37.904L0,127.985C0,138.013 7.994,146 18.028,146L97.968,146C108.003,146 115.996,138.011 115.996,127.985L115.996,118.297L115.997,30.595L115.997,18.017C116.167,8.159 108.173,0.001 98.139,0.001L98.138,0ZM107.662,27.704L107.662,127.811C107.662,133.079 103.41,137.329 98.136,137.329L18.197,137.329C12.925,137.329 8.672,133.081 8.672,127.811L8.673,40.281L23.811,40.281C33.676,40.281 41.839,32.122 41.839,22.265L41.839,8.498L98.309,8.498C103.581,8.498 107.834,12.747 107.834,18.016L107.833,27.704L107.662,27.704ZM31.804,102.658L84.53,102.658L84.53,111.156L31.804,111.156L31.804,102.658ZM58.168,98.069L38.437,78.354L44.39,72.405L53.915,81.923L53.915,40.112L62.42,40.112L62.42,81.751L71.945,72.233L77.898,78.182L58.168,98.069Z" fill="#000000"/>
</svg>
