<svg width="130" height="170" viewBox="0 0 130 170" fill="none" xmlns="http://www.w3.org/2000/svg" xmlns:xlink="http://www.w3.org/1999/xlink">
<path d="M18.608,168.898L18.608,158.115L9.569,158.115L9.569,147.324L0,147.324L0,0L111.392,0L111.392,10.79L120.961,10.79L120.961,21.574L130,21.574L130,168.898L18.608,168.898ZM22.202,165.304L126.408,165.304L126.408,25.166L120.962,25.166L120.962,158.115L22.201,158.115L22.202,165.304ZM13.163,154.521L117.369,154.521L117.369,14.382L111.393,14.382L111.393,147.324L13.163,147.324L13.163,154.521ZM3.594,143.73L107.8,143.73L107.8,3.592L3.594,3.592L3.594,143.73Z" clip-rule="evenodd" fill-rule="evenodd" fill="#000000"/>
<path d="M84.154,75.458L84.154,71.868L27.238,71.868L27.238,75.458L84.154,75.458Z" clip-rule="evenodd" fill-rule="evenodd" fill="#000000"/>
<path d="M84.154,58.109L84.154,54.519L27.238,54.519L27.238,58.109L84.154,58.109Z" clip-rule="evenodd" fill-rule="evenodd" fill="#000000"/>
<path d="M84.154,40.76L84.154,37.17L27.238,37.17L27.238,40.76L84.154,40.76Z" clip-rule="evenodd" fill-rule="evenodd" fill="#000000"/>
<path d="M84.154,92.804L84.154,89.214L27.238,89.214L27.238,92.804L84.154,92.804Z" clip-rule="evenodd" fill-rule="evenodd" fill="#000000"/>
<path d="M84.154,110.149L84.154,106.56L27.238,106.56L27.238,110.149L84.154,110.149Z" clip-rule="evenodd" fill-rule="evenodd" fill="#000000"/>
</svg>
