<svg width="174" height="176" viewBox="0 0 174 176" fill="none" xmlns="http://www.w3.org/2000/svg" xmlns:xlink="http://www.w3.org/1999/xlink">
<path d="M169.091,55.117L93.693,2.046C91.777,0.714 89.501,0 87.166,0C84.834,0 82.557,0.714 80.642,2.046L4.952,55.117C2.441,56.872 0.727,59.55 0.183,62.567C-0.359,65.581 0.313,68.69 2.053,71.212C3.762,73.739 6.416,75.471 9.418,76.017C12.419,76.563 15.513,75.876 18.003,74.112L83.834,27.971C84.764,27.306 85.881,26.948 87.025,26.948C88.169,26.948 89.284,27.306 90.214,27.971L156.071,74.197C157.926,75.525 160.142,76.255 162.423,76.285C163.124,76.289 163.823,76.222 164.511,76.082C167.53,75.538 170.199,73.79 171.906,71.239C173.663,68.726 174.355,65.619 173.827,62.597C173.3,59.575 171.598,56.885 169.092,55.115L169.091,55.117Z" fill="#000000"/>
<path d="M75.42,81.214L55.12,81.214L55.12,121.814L75.42,121.814C78.557,121.814 81.61,122.833 84.119,124.715L84.119,89.915C84.119,87.607 83.203,85.395 81.572,83.763C79.94,82.131 77.727,81.215 75.42,81.215L75.42,81.214ZM75.42,116.014L63.82,116.014C62.219,116.014 60.919,114.716 60.919,113.114C60.919,111.512 62.219,110.214 63.82,110.214L75.42,110.214C77.022,110.214 78.32,111.512 78.32,113.114C78.32,114.716 77.022,116.014 75.42,116.014ZM75.42,104.414L63.82,104.414C62.219,104.414 60.919,103.116 60.919,101.514C60.919,99.913 62.219,98.615 63.82,98.615L75.42,98.615C77.022,98.615 78.32,99.913 78.32,101.514C78.32,103.116 77.022,104.414 75.42,104.414ZM75.42,92.814L63.82,92.814C62.219,92.814 60.919,91.516 60.919,89.914C60.919,88.313 62.219,87.015 63.82,87.015L75.42,87.015C77.022,87.015 78.32,88.313 78.32,89.914C78.32,91.516 77.022,92.814 75.42,92.814Z" fill="#000000"/>
<path d="M89.92,89.915L89.92,124.715C92.43,122.833 95.482,121.814 98.621,121.814L118.921,121.814L118.919,81.214L98.62,81.214C96.312,81.214 94.099,82.13 92.468,83.762C90.837,85.394 89.92,87.606 89.92,89.914L89.92,89.915ZM110.221,116.015L98.621,116.015C97.019,116.015 95.719,114.717 95.719,113.115C95.719,111.513 97.019,110.215 98.621,110.215L110.221,110.215C111.822,110.215 113.12,111.513 113.12,113.115C113.12,114.717 111.822,116.015 110.221,116.015ZM110.221,104.415L98.621,104.415C97.019,104.415 95.719,103.117 95.719,101.515C95.719,99.914 97.019,98.616 98.621,98.616L110.221,98.616C111.822,98.616 113.12,99.914 113.12,101.515C113.12,103.117 111.822,104.415 110.221,104.415ZM113.12,89.915C113.12,90.684 112.814,91.422 112.271,91.966C111.727,92.51 110.989,92.815 110.221,92.815L98.621,92.815C97.019,92.815 95.719,91.517 95.719,89.915C95.719,88.314 97.019,87.016 98.621,87.016L110.221,87.016C110.989,87.016 111.727,87.321 112.271,87.865C112.814,88.409 113.12,89.146 113.12,89.915Z" fill="#000000"/>
<path d="M159.52,168.213L150.82,168.213L150.82,159.514L23.22,159.514L23.22,168.214L14.521,168.213C12.92,168.213 11.62,169.512 11.62,171.114C11.62,172.716 12.92,174.014 14.521,174.014L159.52,174.014C161.122,174.014 162.42,172.716 162.42,171.114C162.42,169.512 161.122,168.213 159.52,168.213Z" fill="#000000"/>
<path d="M150.818,77.618L87.02,32.814L23.219,77.618L23.219,153.713L150.818,153.713L150.818,77.618ZM124.719,124.713C124.719,125.482 124.412,126.22 123.868,126.764C123.326,127.308 122.587,127.613 121.818,127.613L98.619,127.613C96.311,127.613 94.098,128.53 92.467,130.161C90.835,131.792 89.919,134.005 89.919,136.313C89.919,137.915 88.621,139.213 87.019,139.213C85.417,139.213 84.118,137.915 84.118,136.313C84.118,134.005 83.201,131.792 81.571,130.161C79.939,128.53 77.726,127.613 75.419,127.613L52.219,127.613C50.617,127.613 49.319,126.315 49.319,124.713L49.319,78.314C49.319,76.713 50.617,75.415 52.219,75.415L75.419,75.415C79.982,75.415 84.281,77.563 87.019,81.214C89.757,77.563 94.054,75.415 98.619,75.415L121.819,75.415L121.818,75.415C122.587,75.415 123.326,75.72 123.868,76.264C124.412,76.808 124.719,77.545 124.719,78.314L124.719,124.713Z" fill="#000000"/>
</svg>
