<svg width="168" height="168" viewBox="0 0 168 168" fill="none" xmlns="http://www.w3.org/2000/svg" xmlns:xlink="http://www.w3.org/1999/xlink">
<path d="M125.998,20.997L41.998,20.997C40.548,20.997 39.373,19.822 39.373,18.371C39.373,16.922 40.548,15.747 41.998,15.747L125.998,15.747C127.447,15.747 128.622,16.922 128.622,18.371C128.622,19.822 127.447,20.997 125.998,20.997Z" fill="#000000"/>
<path d="M160.124,167.997L7.876,167.997C5.787,167.997 3.785,167.167 2.308,165.69C0.831,164.214 0.001,162.211 0.001,160.123L0.001,23.623C0.001,21.535 0.831,19.531 2.308,18.054C3.785,16.577 5.787,15.748 7.876,15.748L26.251,15.748C27.701,15.748 28.876,16.923 28.876,18.372C28.876,19.823 27.701,20.998 26.251,20.998L7.876,20.998C6.427,20.998 5.252,22.173 5.252,23.623L5.252,160.123C5.252,160.819 5.529,161.486 6.02,161.979C6.513,162.471 7.18,162.747 7.876,162.747L160.124,162.747C160.82,162.747 161.487,162.471 161.98,161.979C162.472,161.486 162.748,160.819 162.748,160.123L162.748,23.623C162.748,22.927 162.472,22.259 161.98,21.766C161.487,21.275 160.82,20.998 160.124,20.998L141.749,20.998C140.298,20.998 139.123,19.823 139.123,18.372C139.123,16.923 140.298,15.748 141.749,15.748L160.124,15.748C162.212,15.748 164.215,16.577 165.691,18.054C167.168,19.531 167.999,21.535 167.999,23.623L167.999,160.123C167.999,162.211 167.168,164.214 165.691,165.69C164.215,167.167 162.212,167.997 160.124,167.997Z" fill="#000000"/>
<path d="M125.998,20.997L41.998,20.997C40.548,20.997 39.373,19.822 39.373,18.371C39.373,16.922 40.548,15.747 41.998,15.747L125.998,15.747C127.447,15.747 128.622,16.922 128.622,18.371C128.622,19.822 127.447,20.997 125.998,20.997Z" fill="#000000"/>
<path d="M34.126,41.999C31.341,41.999 28.671,40.892 26.702,38.923C24.733,36.955 23.627,34.284 23.627,31.499L23.627,10.499C23.627,6.749 25.628,3.282 28.876,1.406C32.124,-0.469 36.127,-0.469 39.376,1.406C42.625,3.282 44.626,6.749 44.626,10.499L44.626,31.499C44.626,34.284 43.52,36.955 41.551,38.923C39.581,40.892 36.912,41.999 34.126,41.999ZM34.126,5.248C32.733,5.248 31.398,5.801 30.414,6.786C29.43,7.77 28.876,9.105 28.876,10.498L28.876,31.498C28.876,33.373 29.877,35.106 31.502,36.044C33.125,36.983 35.126,36.983 36.751,36.044C38.376,35.106 39.376,33.373 39.376,31.498L39.376,10.498C39.376,9.106 38.823,7.77 37.839,6.786C36.853,5.801 35.518,5.248 34.126,5.248Z" fill="#000000"/>
<path d="M133.874,41.999C131.09,41.999 128.419,40.892 126.449,38.923C124.48,36.955 123.374,34.284 123.374,31.499L123.374,10.499C123.374,6.749 125.375,3.282 128.623,1.406C131.873,-0.469 135.875,-0.469 139.124,1.406C142.373,3.282 144.374,6.749 144.374,10.499L144.374,31.499C144.374,34.284 143.267,36.955 141.298,38.923C139.33,40.892 136.659,41.999 133.874,41.999ZM133.874,5.248C132.482,5.248 131.146,5.801 130.161,6.786C129.177,7.77 128.624,9.105 128.624,10.498L128.624,31.498C128.624,33.373 129.624,35.106 131.249,36.044C132.874,36.983 134.875,36.983 136.5,36.044C138.123,35.106 139.124,33.373 139.124,31.498L139.124,10.498C139.124,9.106 138.571,7.77 137.586,6.786C136.602,5.801 135.267,5.248 133.874,5.248Z" fill="#000000"/>
<path d="M74.367,89.248L53.367,89.248C51.918,89.248 50.741,88.073 50.741,86.623L50.741,65.624C50.741,64.173 51.918,62.998 53.367,62.998L74.367,62.998C75.063,62.998 75.73,63.275 76.223,63.768C76.715,64.259 76.991,64.928 76.991,65.624L76.991,86.624L76.991,86.623C76.991,87.319 76.715,87.987 76.223,88.478C75.73,88.971 75.063,89.248 74.367,89.248ZM55.992,83.999L71.741,83.999L71.741,68.248L55.992,68.248L55.992,83.999Z" fill="#000000"/>
<path d="M114.632,89.248L93.632,89.248C92.183,89.248 91.008,88.073 91.008,86.623L91.008,65.624C91.008,64.173 92.183,62.998 93.632,62.998L114.632,62.998C115.328,62.998 115.997,63.275 116.488,63.768C116.981,64.259 117.257,64.928 117.257,65.624L117.257,86.624L117.257,86.623C117.257,87.319 116.981,87.987 116.488,88.478C115.997,88.971 115.328,89.248 114.632,89.248ZM96.257,83.999L112.007,83.999L112.007,68.248L96.257,68.248L96.257,83.999Z" fill="#000000"/>
<path d="M154.873,89.248L133.874,89.248C132.424,89.248 131.249,88.073 131.249,86.623L131.249,65.624C131.249,64.173 132.424,62.998 133.874,62.998L154.875,62.998L154.873,62.998C155.569,62.998 156.238,63.275 156.73,63.768C157.222,64.259 157.499,64.928 157.499,65.624L157.499,86.624L157.499,86.623C157.499,87.319 157.222,87.987 156.73,88.478C156.238,88.971 155.569,89.248 154.873,89.248L154.873,89.248ZM136.499,83.999L152.248,83.999L152.25,68.248L136.5,68.248L136.499,83.999Z" fill="#000000"/>
<path d="M34.125,120.745L13.126,120.745C11.676,120.745 10.501,119.57 10.501,118.121L10.501,97.121C10.501,95.672 11.676,94.496 13.126,94.496L34.127,94.496L34.125,94.496C34.821,94.496 35.49,94.772 35.982,95.265C36.474,95.758 36.751,96.425 36.751,97.121L36.751,118.121C36.751,118.817 36.474,119.484 35.982,119.977C35.49,120.47 34.822,120.745 34.125,120.745ZM15.752,115.496L31.502,115.496L31.502,99.746L15.752,99.746L15.752,115.496Z" fill="#000000"/>
<path d="M74.367,120.745L53.367,120.745C51.918,120.745 50.741,119.57 50.741,118.121L50.741,97.121C50.741,95.672 51.918,94.496 53.367,94.496L74.367,94.496C75.063,94.496 75.73,94.772 76.223,95.265C76.715,95.758 76.991,96.425 76.991,97.121L76.991,118.121C76.991,118.817 76.715,119.484 76.223,119.977C75.73,120.47 75.063,120.745 74.367,120.745ZM55.992,115.496L71.741,115.496L71.741,99.746L55.992,99.746L55.992,115.496Z" fill="#000000"/>
<path d="M114.632,120.745L93.632,120.745C92.183,120.745 91.008,119.57 91.008,118.121L91.008,97.121C91.008,95.672 92.183,94.496 93.632,94.496L114.632,94.496C115.328,94.496 115.997,94.772 116.488,95.265C116.981,95.758 117.257,96.425 117.257,97.121L117.257,118.121C117.257,118.817 116.981,119.484 116.488,119.977C115.997,120.47 115.328,120.745 114.632,120.745ZM96.257,115.496L112.007,115.496L112.007,99.746L96.257,99.746L96.257,115.496Z" fill="#000000"/>
<path d="M154.873,120.745L133.874,120.745C132.424,120.745 131.249,119.57 131.249,118.121L131.249,97.121C131.249,95.672 132.424,94.496 133.874,94.496L154.875,94.496L154.873,94.496C155.569,94.496 156.238,94.772 156.73,95.265C157.222,95.758 157.499,96.425 157.499,97.121L157.499,118.121C157.499,118.817 157.222,119.484 156.73,119.977C156.238,120.47 155.57,120.745 154.873,120.745ZM136.499,115.496L152.248,115.496L152.25,99.746L136.5,99.746L136.499,115.496Z" fill="#000000"/>
<path d="M34.125,152.246L13.126,152.246C11.676,152.246 10.501,151.071 10.501,149.62L10.501,128.62C10.501,127.171 11.676,125.996 13.126,125.996L34.127,125.996L34.125,125.996C34.821,125.996 35.49,126.273 35.982,126.764C36.474,127.257 36.751,127.924 36.751,128.62L36.751,149.62C36.751,150.316 36.474,150.983 35.982,151.476C35.49,151.969 34.822,152.246 34.125,152.246ZM15.752,146.995L31.502,146.995L31.502,131.245L15.752,131.245L15.752,146.995Z" fill="#000000"/>
<path d="M74.367,152.246L53.367,152.246C51.918,152.246 50.741,151.071 50.741,149.62L50.741,128.62C50.741,127.171 51.918,125.996 53.367,125.996L74.367,125.996C75.063,125.996 75.73,126.273 76.223,126.764C76.715,127.257 76.991,127.924 76.991,128.62L76.991,149.62C76.991,150.316 76.715,150.983 76.223,151.476C75.73,151.969 75.063,152.246 74.367,152.246ZM55.992,146.996L71.741,146.996L71.741,131.245L55.992,131.245L55.992,146.996Z" fill="#000000"/>
<path d="M114.632,152.246L93.632,152.246C92.183,152.246 91.008,151.071 91.008,149.62L91.008,128.62C91.008,127.171 92.183,125.996 93.632,125.996L114.632,125.996C115.328,125.996 115.997,126.273 116.488,126.764C116.981,127.257 117.257,127.924 117.257,128.62L117.257,149.62C117.257,150.316 116.981,150.983 116.488,151.476C115.997,151.969 115.328,152.246 114.632,152.246ZM96.257,146.996L112.007,146.996L112.007,131.245L96.257,131.245L96.257,146.996Z" fill="#000000"/>
<path d="M154.873,152.246L133.874,152.246C132.424,152.246 131.249,151.071 131.249,149.62L131.249,128.62C131.249,127.171 132.424,125.996 133.874,125.996L154.875,125.996L154.873,125.996C155.569,125.996 156.238,126.273 156.73,126.764C157.222,127.257 157.499,127.924 157.499,128.62L157.499,149.62C157.499,150.316 157.222,150.983 156.73,151.476C156.238,151.969 155.57,152.246 154.873,152.246ZM136.499,146.996L152.248,146.996L152.25,131.245L136.5,131.245L136.499,146.996Z" fill="#000000"/>
<path d="M165.375,57.748L2.625,57.748C1.176,57.748 0,56.571 0,55.122C0,53.672 1.176,52.497 2.625,52.497L165.375,52.497C166.825,52.497 168,53.672 168,55.122C168,56.571 166.825,57.748 165.375,57.748Z" fill="#000000"/>
</svg>
