<svg width="196" height="196" viewBox="0 0 196 196" fill="none" xmlns="http://www.w3.org/2000/svg" xmlns:xlink="http://www.w3.org/1999/xlink">
<path d="M99.522,0.531C98.627,-0.177 97.366,-0.177 96.471,0.531L0.925,76.499C-0.133,77.341 -0.31,78.885 0.532,79.941C1.371,81.003 2.914,81.174 3.974,80.337L18.141,69.072L18.143,193.548C18.143,194.902 19.239,195.998 20.593,195.998L175.408,195.998C176.761,195.998 177.859,194.902 177.859,193.548L177.859,69.072L192.026,80.337C192.476,80.694 193.015,80.869 193.549,80.869C194.271,80.869 194.985,80.553 195.468,79.943C196.309,78.885 196.134,77.343 195.074,76.501L99.522,0.531ZM172.951,191.098L23.038,191.098L23.038,65.179L97.995,5.584L172.951,65.184L172.951,191.098Z" fill="#000000"/>
<path d="M96.478,53.712L38.911,95.201C38.271,95.662 37.893,96.401 37.893,97.189C37.893,97.976 38.271,98.717 38.911,99.178L51.792,108.462L51.792,133.775C51.792,134.548 52.158,135.278 52.777,135.739L96.443,168.281C96.876,168.602 97.393,168.765 97.907,168.765C98.422,168.765 98.937,168.602 99.372,168.279L125.74,148.63L125.74,160.373C125.74,161.727 126.836,162.823 128.19,162.823C129.543,162.823 130.641,161.727 130.641,160.373L130.641,144.979L143.039,135.74C143.659,135.278 144.025,134.549 144.025,133.775L144.021,108.46L156.902,99.176C157.542,98.715 157.92,97.976 157.92,97.188C157.92,96.401 157.542,95.66 156.902,95.199L99.335,53.712C98.482,53.095 97.326,53.095 96.473,53.712L96.478,53.712ZM97.91,163.259L56.693,132.545L56.693,111.993L96.476,140.667C96.905,140.975 97.407,141.129 97.91,141.129C98.412,141.129 98.915,140.975 99.342,140.667L125.742,121.639L125.742,142.519L97.91,163.259ZM139.125,132.545L130.642,138.866L130.642,118.108L139.125,111.993L139.125,132.545ZM151.282,97.19L128.191,113.834L99.343,93C98.248,92.208 96.714,92.455 95.923,93.551C95.131,94.648 95.378,96.18 96.474,96.972L124.001,116.855L97.91,135.66L44.535,97.191L97.91,58.721L151.282,97.19Z" fill="#000000"/>
</svg>
