<svg width="232" height="232" viewBox="0 0 232 232" fill="none" xmlns="http://www.w3.org/2000/svg" xmlns:xlink="http://www.w3.org/1999/xlink">
<rect  x="0.868" y="76.147" width="70.847" height="115.127" fill="#FFFFFF"/>
<rect  x="0.868" y="36.294" width="70.847" height="30.997" fill="#FFFFFF"/>
<rect  x="0.868" y="200.133" width="70.847" height="30.997" fill="#FFFFFF"/>
<rect  x="80.574" y="98.287" width="53.137" height="132.84" fill="#FFFFFF"/>
<path d="M160.28,0.867L107.144,18.579L177.99,231.125L231.127,213.413L160.28,0.867ZM188.265,173.298C187.797,173.382 187.318,173.382 186.847,173.298C184.951,173.312 183.266,172.092 182.686,170.286L147.261,64.013L147.261,64.015C146.795,61.82 148.043,59.625 150.166,58.902C152.288,58.179 154.618,59.157 155.587,61.181L191.011,167.454C191.49,168.587 191.466,169.873 190.941,170.987C190.418,172.103 189.444,172.942 188.265,173.298Z" fill="#FFFFFF"/>
</svg>
