<svg width="254" height="208" viewBox="0 0 254 208" fill="none" xmlns="http://www.w3.org/2000/svg" xmlns:xlink="http://www.w3.org/1999/xlink">
<path d="M250.334,42.45L250.052,42.167C249.206,41.035 248.078,40.186 246.95,39.336L209.456,3.113C207.482,1.132 204.662,0 201.564,0L52.718,0.002C49.898,0.002 47.079,1.134 44.825,3.116L7.049,39.053C5.921,39.902 4.793,40.752 3.947,41.884L3.666,42.167C1.41,44.997 0,48.675 0,52.638L0,182.25C0,191.871 7.611,199.511 16.915,199.511L27.064,199.511C29.601,204.606 34.956,208 40.878,208L49.334,208C55.253,208 60.61,204.604 63.149,199.511L190.569,199.511C193.107,204.606 198.462,208 204.384,208L212.84,208C218.758,208 224.116,204.604 226.654,199.511L237.084,199.511C246.388,199.511 254,191.871 254,182.25L253.998,52.924C253.998,48.961 252.59,45.284 250.334,42.453L250.334,42.45ZM57.228,22.641L197.334,22.641L222.988,47.262L31.571,47.262L57.228,22.641ZM22.835,58.298L180.701,58.298L180.701,177.154L22.834,177.152L22.835,58.298ZM191.979,177.154L191.979,58.298L231.448,58.298L231.448,177.154L191.979,177.154ZM160.406,163.004C162.662,163.004 164.635,161.872 165.481,159.89C186.342,118.291 166.327,77.259 165.481,75.557C164.635,73.575 162.662,72.443 160.406,72.443L42.567,72.445C40.311,72.445 38.338,73.577 37.492,75.559C36.646,77.257 16.631,118.29 37.492,159.893C38.338,161.874 40.311,163.004 42.567,163.004L160.406,163.004ZM46.236,83.765L156.741,83.765C160.407,93.103 169.992,122.252 156.741,151.68L46.236,151.68C33.268,122.533 42.57,93.387 46.236,83.765ZM220.172,69.334L203.256,69.334C200.156,69.334 197.618,71.882 197.618,74.995L197.618,92.539C197.618,95.653 200.156,98.2 203.256,98.2L220.172,98.2C223.274,98.2 225.812,95.652 225.812,92.539L225.812,74.995C225.812,71.879 223.274,69.334 220.172,69.334ZM214.536,86.878L208.896,86.878L208.896,80.653L214.536,80.653L214.536,86.878ZM199.029,109.235L222.992,109.235L222.992,120.554L199.029,120.554L199.029,109.235ZM199.029,131.874L222.992,131.874L222.992,143.193L199.029,143.193L199.029,131.874ZM199.029,154.513L222.992,154.513L222.992,165.833L199.029,165.833L199.029,154.513Z" fill="#ECAE20"/>
</svg>
