<svg width="180" height="334" viewBox="0 0 180 334" fill="none" xmlns="http://www.w3.org/2000/svg" xmlns:xlink="http://www.w3.org/1999/xlink">
<path d="M140.372,37.804L140.372,17.327C140.372,11.493 137.26,6.102 132.21,3.185C127.156,0.268 120.931,0.268 115.881,3.185C110.827,6.102 107.716,11.493 107.716,17.327L107.716,37.502C107.716,37.502 41.268,37.55 40.936,37.54C29.892,37.899 19.421,42.552 11.753,50.512C4.086,58.469 -0.179,69.102 -0.13,80.15L-0.13,150.3C-0.128,153.277 1.055,156.129 3.159,158.23C5.263,160.334 8.115,161.517 11.092,161.522L72.668,161.522L72.668,300.35L46.931,300.35C43.955,300.352 41.103,301.536 39.002,303.64C36.898,305.744 35.715,308.596 35.709,311.57L35.709,327.564C35.709,329.008 36.282,330.392 37.303,331.412C38.324,332.434 39.709,333.008 41.154,333.006L136.831,333.006C138.273,333.008 139.659,332.434 140.68,331.412C141.701,330.392 142.273,329.008 142.273,327.564L142.273,311.57C142.27,308.596 141.088,305.744 138.986,303.642C136.882,301.538 134.033,300.356 131.057,300.35L105.32,300.35L105.32,161.55L166.898,161.55C169.872,161.547 172.724,160.364 174.828,158.261C176.932,156.157 178.115,153.305 178.118,150.331L178.118,80.139C178.104,69.685 174.25,59.6 167.293,51.797C160.336,43.995 150.753,39.017 140.369,37.81L140.372,37.804ZM124.045,11.882C127.049,11.884 129.485,14.321 129.488,17.327L129.488,72.925C126.217,70.821 122.479,69.555 118.601,69.236L118.601,17.327C118.603,14.321 121.039,11.884 124.045,11.882ZM116.47,79.907C119.921,79.907 123.23,81.276 125.672,83.718C128.11,86.157 129.482,89.468 129.482,92.917C129.482,96.369 128.11,99.68 125.672,102.119C123.23,104.561 119.922,105.93 116.47,105.93C113.021,105.93 109.71,104.561 107.271,102.119C104.829,99.68 103.46,96.369 103.46,92.917C103.462,89.468 104.834,86.162 107.273,83.721C109.712,81.282 113.021,79.91 116.47,79.907ZM107.717,48.386L107.717,70.735C102.31,72.869 97.867,76.904 95.223,82.081C92.581,87.258 91.917,93.222 93.357,98.856C94.796,104.487 98.242,109.4 103.047,112.673C107.852,115.946 113.686,117.353 119.452,116.63C125.221,115.908 130.529,113.108 134.377,108.751C138.228,104.395 140.357,98.782 140.362,92.97L140.373,92.916L140.373,48.801C147.848,49.971 154.663,53.768 159.586,59.512C164.513,65.254 167.224,72.568 167.237,80.133L167.005,128.891L82.439,128.891L82.439,80.15C82.477,68.015 77.302,56.447 68.227,48.388L107.717,48.386ZM40.936,48.413C49.165,48.68 56.969,52.143 62.686,58.068C68.401,63.994 71.582,71.918 71.553,80.151L71.553,128.892L10.757,128.892L10.757,80.151C10.7,71.984 13.814,64.113 19.443,58.193C25.071,52.275 32.774,48.77 40.936,48.413L40.936,48.413ZM10.758,150.299L10.758,139.773L71.553,139.773L71.553,150.606L10.758,150.299ZM131.388,311.57L131.388,322.122L46.593,322.122L46.593,311.57C46.593,311.48 46.629,311.396 46.691,311.334C46.753,311.27 46.839,311.234 46.928,311.234L131.388,311.57ZM94.438,300.35L83.551,300.35L83.551,161.55L94.435,161.55L94.438,300.35ZM82.436,150.66L82.436,139.776L166.953,139.773L166.902,150.657L82.436,150.66ZM16.65,82.184C16.65,80.742 17.223,79.356 18.243,78.335C19.264,77.314 20.65,76.742 22.092,76.742L60.214,76.742C63.22,76.742 65.656,79.178 65.656,82.184C65.656,85.19 63.22,87.626 60.214,87.626L22.092,87.626C20.65,87.629 19.264,87.054 18.243,86.033C17.223,85.012 16.65,83.629 16.65,82.184Z" fill="#000000"/>
</svg>
