<svg width="176" height="180" viewBox="0 0 176 180" fill="none" xmlns="http://www.w3.org/2000/svg" xmlns:xlink="http://www.w3.org/1999/xlink">
<path d="M175.753,132.035L162.012,26.131C161.692,23.763 160.452,21.617 158.564,20.163C156.677,18.706 154.293,18.057 151.932,18.358L147.313,18.96C145.528,18.443 143.7,18.09 141.853,17.906L141.78,17.981L141.78,17.98C142.987,16.6 143.623,14.807 143.56,12.971C143.496,11.135 142.738,9.392 141.44,8.097L135.429,2.063C134.049,0.739 132.212,0 130.304,0C128.394,0 126.558,0.739 125.177,2.063L119.533,7.731C114.674,7.197 109.843,8.957 106.455,12.496L106.452,12.482L29.801,0.733C27.443,0.372 25.037,0.966 23.114,2.383C21.19,3.802 19.906,5.927 19.541,8.295L0.1,136.374C-0.254,138.742 0.34,141.154 1.751,143.084C3.161,145.014 5.275,146.306 7.63,146.678L42.191,151.981L44.801,172.137C45.087,174.308 46.148,176.303 47.786,177.748C49.425,179.194 51.53,179.994 53.711,180C55.091,180 146.052,167.978 146.502,167.918L146.503,167.918C155.206,167.268 163.264,163.061 168.793,156.278C174.321,149.496 176.838,140.732 175.753,132.035L175.753,132.035ZM119.914,13.899C120.914,14.126 121.962,13.819 122.684,13.088L129.419,6.325L129.42,6.325C129.909,5.836 130.699,5.836 131.188,6.325L137.199,12.36C137.447,12.588 137.589,12.911 137.589,13.248C137.589,13.586 137.447,13.908 137.199,14.136L130.244,21.121C129.538,21.83 129.23,22.844 129.42,23.828C129.922,26.294 129.489,28.861 128.206,31.025L112.513,15.264C114.685,13.8 117.365,13.305 119.914,13.899ZM8.533,140.715C6.901,140.45 5.78,138.923 6.012,137.279L25.483,9.2C25.74,7.561 27.271,6.443 28.902,6.7L107.497,18.752L112.267,23.542L35.921,33.514C33.558,33.846 31.42,35.096 29.968,36.996C28.515,38.895 27.863,41.292 28.15,43.669L41.38,145.745L8.533,140.715ZM50.744,171.357L34.094,42.887C33.884,41.241 35.036,39.734 36.674,39.512C36.839,39.484 76.442,34.311 109.4,29.986L98.132,41.303C95.345,44.024 99.659,48.375 102.375,45.564L118.284,29.585L126.355,37.69L126.353,37.688C127.537,38.862 129.441,38.855 130.614,37.672C133.611,34.73 135.389,30.759 135.593,26.555C139.7,26.042 153.075,24.296 153.106,24.296L153.106,24.294C154.605,24.309 155.868,25.424 156.076,26.915L168.106,119.53C167.627,121.037 160.695,122.031 157.335,122.513C139.665,122.542 130.785,136.734 134.235,152.522C134.566,157.222 134.865,161.68 133.455,163.579L54.133,173.948C52.491,174.149 50.987,173 50.743,171.357L50.744,171.357ZM148.965,161.474C148.204,161.709 141.087,162.558 140.145,162.709C140.614,159.191 140.643,155.629 140.235,152.103C138.616,136.677 140.956,130.229 158.175,128.483C161.838,128.127 165.445,127.327 168.915,126.102C169.013,126.956 169.872,133.258 169.905,133.967L169.905,133.965C170.445,140.345 168.598,146.697 164.727,151.782C160.855,156.868 155.235,160.323 148.965,161.474ZM51.029,83.174C49.477,83.131 48.211,81.906 48.112,80.35C48.012,78.792 49.111,77.415 50.645,77.173L148.817,64.331C150.461,64.116 151.966,65.279 152.18,66.928C152.395,68.579 151.236,70.092 149.594,70.307L51.422,83.148C51.291,83.166 51.16,83.174 51.029,83.174ZM62.809,54.313L131.232,45.365L131.232,45.364C132.876,45.15 134.381,46.313 134.594,47.964C134.808,49.614 133.649,51.126 132.007,51.339L63.583,60.289C63.455,60.305 63.324,60.314 63.193,60.313C61.641,60.271 60.375,59.047 60.276,57.489C60.176,55.932 61.275,54.555 62.809,54.313ZM53.742,104.088C52.189,104.045 50.924,102.82 50.824,101.263C50.724,99.706 51.823,98.329 53.359,98.087L151.531,85.246C153.175,85.03 154.681,86.194 154.896,87.844C155.11,89.495 153.952,91.006 152.308,91.222L54.132,104.063C54.003,104.079 53.872,104.088 53.741,104.088L53.742,104.088ZM56.456,125.001C54.901,124.96 53.638,123.734 53.538,122.177C53.438,120.619 54.537,119.242 56.072,119L154.244,106.159C155.886,105.944 157.392,107.107 157.606,108.757C157.821,110.408 156.663,111.92 155.019,112.135L56.847,124.976C56.718,124.994 56.587,125.001 56.456,125.001ZM89.306,142C88.772,142.044 59.652,145.93 59.165,145.917L59.166,145.916C57.614,145.872 56.35,144.648 56.25,143.09C56.15,141.534 57.249,140.157 58.784,139.915L88.533,136.023L88.533,136.024C90.167,135.829 91.652,136.99 91.864,138.627C92.077,140.264 90.936,141.768 89.308,141.999L89.306,142Z" fill="#000000"/>
</svg>
