<svg width="180" height="334" viewBox="0 0 180 334" fill="none" xmlns="http://www.w3.org/2000/svg" xmlns:xlink="http://www.w3.org/1999/xlink">
<path d="M140.372,37.804L140.372,17.326C140.372,11.493 137.26,6.102 132.21,3.185C127.156,0.268 120.931,0.268 115.881,3.185C110.827,6.102 107.716,11.493 107.716,17.326L107.716,37.502C107.716,37.502 41.268,37.55 40.936,37.539C29.892,37.899 19.421,42.552 11.753,50.512C4.086,58.468 -0.179,69.101 -0.13,80.15L-0.13,150.3C-0.128,153.276 1.055,156.129 3.159,158.23C5.263,160.334 8.115,161.517 11.092,161.522L72.668,161.522L72.668,300.349L46.931,300.349C43.955,300.351 41.103,301.535 39.002,303.639C36.898,305.743 35.715,308.595 35.709,311.569L35.709,327.563C35.709,329.007 36.282,330.391 37.303,331.411C38.324,332.433 39.709,333.007 41.154,333.005L136.831,333.005C138.273,333.007 139.659,332.433 140.68,331.411C141.701,330.391 142.273,329.007 142.273,327.563L142.273,311.569C142.27,308.595 141.088,305.743 138.986,303.641C136.882,301.537 134.033,300.355 131.057,300.349L105.32,300.349L105.32,161.55L166.898,161.55C169.872,161.547 172.724,160.364 174.828,158.26C176.932,156.156 178.115,153.304 178.118,150.331L178.118,80.139C178.104,69.684 174.25,59.599 167.293,51.797C160.336,43.994 150.753,39.017 140.369,37.81L140.372,37.804ZM124.045,11.882C127.049,11.884 129.485,14.32 129.488,17.326L129.488,72.925C126.217,70.821 122.479,69.555 118.601,69.236L118.601,17.327C118.603,14.32 121.039,11.884 124.045,11.882ZM116.47,79.907C119.921,79.907 123.23,81.276 125.672,83.718C128.11,86.157 129.482,89.468 129.482,92.917C129.482,96.369 128.11,99.68 125.672,102.119C123.23,104.56 119.922,105.93 116.47,105.93C113.021,105.93 109.71,104.56 107.271,102.119C104.829,99.68 103.46,96.369 103.46,92.917C103.462,89.468 104.834,86.162 107.273,83.72C109.712,81.282 113.021,79.91 116.47,79.907ZM107.717,48.386L107.717,70.735C102.31,72.868 97.867,76.903 95.223,82.081C92.581,87.258 91.917,93.221 93.357,98.856C94.796,104.487 98.242,109.4 103.047,112.673C107.852,115.946 113.686,117.353 119.452,116.629C125.221,115.908 130.529,113.108 134.377,108.751C138.228,104.394 140.357,98.782 140.362,92.97L140.373,92.916L140.373,48.801C147.848,49.97 154.663,53.768 159.586,59.512C164.513,65.254 167.224,72.568 167.237,80.133L167.005,128.891L82.439,128.891L82.439,80.149C82.477,68.014 77.302,56.447 68.227,48.388L107.717,48.386ZM40.936,48.413C49.165,48.68 56.969,52.143 62.686,58.068C68.401,63.994 71.582,71.918 71.553,80.15L71.553,128.892L10.757,128.892L10.757,80.15C10.7,71.983 13.814,64.113 19.443,58.193C25.071,52.275 32.774,48.77 40.936,48.413L40.936,48.413ZM10.758,150.298L10.758,139.773L71.553,139.773L71.553,150.606L10.758,150.298ZM131.388,311.569L131.388,322.121L46.593,322.121L46.593,311.569C46.593,311.479 46.629,311.395 46.691,311.333C46.753,311.269 46.839,311.233 46.928,311.233L131.388,311.569ZM94.438,300.349L83.551,300.349L83.551,161.55L94.435,161.55L94.438,300.349ZM82.436,150.66L82.436,139.776L166.953,139.773L166.902,150.657L82.436,150.66ZM16.65,82.184C16.65,80.742 17.223,79.356 18.243,78.335C19.264,77.314 20.65,76.742 22.092,76.742L60.214,76.742C63.22,76.742 65.656,79.178 65.656,82.184C65.656,85.19 63.22,87.626 60.214,87.626L22.092,87.626C20.65,87.629 19.264,87.053 18.243,86.032C17.223,85.012 16.65,83.629 16.65,82.184Z" fill="#000000"/>
</svg>
