<svg width="116" height="116" viewBox="0 0 116 116" fill="none" xmlns="http://www.w3.org/2000/svg" xmlns:xlink="http://www.w3.org/1999/xlink">
<path d="M58,10.451C73.487,10.451 75.321,10.51 81.437,10.789C87.092,11.047 90.163,11.992 92.207,12.786C94.914,13.838 96.846,15.095 98.876,17.124C100.905,19.154 102.162,21.086 103.214,23.793C104.008,25.837 104.953,28.908 105.211,34.563C105.49,40.679 105.549,42.513 105.549,58C105.549,73.487 105.49,75.321 105.211,81.437C104.953,87.092 104.008,90.163 103.214,92.207C102.162,94.914 100.905,96.846 98.876,98.876C96.846,100.905 94.914,102.162 92.207,103.214C90.163,104.009 87.092,104.953 81.437,105.212C75.322,105.491 73.488,105.55 58,105.55C42.512,105.55 40.678,105.491 34.563,105.212C28.908,104.953 25.837,104.009 23.793,103.214C21.086,102.162 19.154,100.905 17.124,98.876C15.095,96.846 13.838,94.914 12.786,92.207C11.991,90.163 11.046,87.092 10.788,81.437C10.509,75.321 10.45,73.487 10.45,58C10.45,42.513 10.509,40.679 10.788,34.563C11.046,28.908 11.991,25.837 12.786,23.793C13.838,21.086 15.095,19.154 17.124,17.124C19.154,15.095 21.086,13.838 23.793,12.786C25.837,11.992 28.908,11.047 34.563,10.789C40.679,10.51 42.513,10.451 58,10.451ZM58,0C42.248,0 40.273,0.067 34.087,0.349C27.913,0.631 23.697,1.611 20.008,3.045C16.194,4.527 12.959,6.51 9.735,9.735C6.51,12.959 4.527,16.194 3.045,20.008C1.611,23.697 0.631,27.913 0.349,34.087C0.067,40.273 0,42.248 0,58C0,73.752 0.067,75.727 0.349,81.913C0.631,88.087 1.611,92.303 3.045,95.992C4.527,99.806 6.51,103.041 9.735,106.265C12.959,109.49 16.194,111.473 20.008,112.955C23.697,114.389 27.913,115.369 34.087,115.651C40.273,115.933 42.248,116 58,116C73.752,116 75.727,115.933 81.913,115.651C88.087,115.369 92.303,114.389 95.992,112.955C99.806,111.473 103.041,109.49 106.265,106.265C109.49,103.041 111.473,99.806 112.955,95.992C114.389,92.303 115.369,88.087 115.651,81.913C115.933,75.727 116,73.752 116,58C116,42.248 115.933,40.273 115.651,34.087C115.369,27.913 114.389,23.697 112.955,20.008C111.473,16.194 109.49,12.959 106.265,9.735C103.041,6.51 99.806,4.527 95.992,3.045C92.303,1.611 88.087,0.631 81.913,0.349C75.727,0.067 73.752,0 58,0ZM58,28.216C41.551,28.216 28.216,41.551 28.216,58C28.216,74.449 41.551,87.784 58,87.784C74.449,87.784 87.784,74.449 87.784,58C87.784,41.551 74.449,28.216 58,28.216ZM58,77.334C47.322,77.334 38.666,68.678 38.666,58C38.666,47.323 47.322,38.667 58,38.667C68.677,38.667 77.333,47.323 77.333,58C77.333,68.678 68.677,77.334 58,77.334ZM95.92,27.04C95.92,30.883 92.804,34 88.96,34C85.117,34 82,30.883 82,27.04C82,23.196 85.117,20.08 88.96,20.08C92.804,20.08 95.92,23.196 95.92,27.04Z" fill="#0A0A08"/>
</svg>
