<svg width="198" height="172" viewBox="0 0 198 172" fill="none" xmlns="http://www.w3.org/2000/svg" xmlns:xlink="http://www.w3.org/1999/xlink">
<path d="M180.654,41.203L164.569,41.203L164.569,19.769C164.569,8.87 155.714,0 144.832,0L19.737,0C8.855,0 0,8.87 0,19.769L0,100.847C0,111.747 8.855,120.617 19.737,120.617L38.086,120.617L38.004,148.564C38.002,149.811 38.725,150.947 39.853,151.466C40.279,151.662 40.733,151.757 41.183,151.757C41.929,151.757 42.671,151.492 43.259,150.987L59.035,137.385C62.196,142.26 67.662,145.347 73.594,145.347L130.205,145.347L160.219,171.23C160.807,171.738 161.549,172 162.295,172C162.746,172 163.199,171.903 163.624,171.709C164.756,171.186 165.478,170.054 165.474,168.807L165.406,145.347L180.65,145.347C190.215,145.347 197.998,137.551 197.998,127.968L198,58.581C198,48.996 190.217,41.204 180.652,41.204L180.654,41.203ZM43.528,115.178C42.933,114.579 42.12,114.242 41.277,114.242L19.738,114.242C12.362,114.242 6.361,108.233 6.361,100.843L6.361,19.765C6.361,12.377 12.36,6.365 19.738,6.365L144.833,6.365C152.209,6.365 158.211,12.375 158.211,19.765L158.211,100.843C158.211,108.231 152.211,114.242 144.833,114.242L77.303,114.242C76.542,114.242 75.806,114.516 75.227,115.012L44.386,141.608L44.457,117.439C44.463,116.59 44.127,115.777 43.532,115.179L43.528,115.178ZM191.642,127.965C191.642,134.035 186.711,138.975 180.655,138.975L162.221,138.975C161.378,138.975 160.565,139.311 159.97,139.911C159.375,140.511 159.041,141.325 159.043,142.168L159.101,161.849L133.469,139.744C132.892,139.247 132.154,138.975 131.393,138.975L73.594,138.975C69.726,138.975 66.169,136.903 64.197,133.649L79.313,120.613L145.66,120.613C156.542,120.613 165.395,111.744 165.395,100.844L165.394,47.571L180.646,47.571C186.706,47.571 191.634,52.51 191.634,58.577L191.636,127.964L191.642,127.965ZM59.05,70.937C59.065,70.555 59.007,70.162 58.875,69.778L53.087,53.156L47.537,39.259C56.918,34.012 66.308,30.822 75.53,29.756C76.275,31.172 77.436,32.317 78.866,33.037L73.797,85.725L73.282,85.725C71.526,85.725 70.104,87.15 70.104,88.909C70.104,89.798 70.469,90.601 71.055,91.178L71.053,91.178C66.096,91.178 62.065,95.22 62.065,100.181L62.065,106.001C62.065,107.76 63.487,109.185 65.244,109.185L99.331,109.185C101.088,109.185 102.51,107.76 102.51,106.001L102.51,100.181C102.51,95.216 98.478,91.178 93.522,91.178L93.52,91.178C94.106,90.601 94.471,89.8 94.471,88.909C94.471,87.15 93.049,85.725 91.292,85.725L90.776,85.725L85.707,33.037C87.153,32.307 88.327,31.142 89.068,29.703C98.395,30.709 107.783,33.906 117.047,39.229L111.43,53.293L105.692,69.78C105.561,70.165 105.502,70.555 105.517,70.939C105.637,79.384 112.574,86.244 121.018,86.244C129.462,86.244 136.396,79.388 136.517,70.939C136.531,70.553 136.473,70.164 136.341,69.78L130.554,53.158L123.97,36.671C123.962,36.654 123.95,36.645 123.946,36.627C123.838,36.369 123.696,36.126 123.522,35.903C123.486,35.857 123.446,35.817 123.407,35.771C123.256,35.596 123.082,35.436 122.891,35.298C122.845,35.265 122.801,35.226 122.754,35.193C122.728,35.177 122.708,35.155 122.683,35.138C111.737,28.416 100.547,24.478 89.384,23.335C88.648,21.516 87.239,20.053 85.464,19.237L85.464,16.646C85.464,14.886 84.042,13.462 82.285,13.462C80.529,13.462 79.107,14.886 79.107,16.646L79.107,19.237C77.314,20.062 75.897,21.55 75.168,23.394C64.159,24.606 52.991,28.52 41.925,35.118C41.892,35.14 41.863,35.166 41.832,35.188C41.779,35.221 41.733,35.263 41.68,35.299C41.485,35.442 41.313,35.601 41.161,35.778C41.129,35.817 41.092,35.853 41.057,35.894C40.882,36.117 40.74,36.36 40.632,36.618C40.625,36.638 40.608,36.651 40.601,36.671L33.962,53.295L28.227,69.781C28.096,70.167 28.038,70.559 28.052,70.941C28.173,79.386 35.109,86.246 43.553,86.246C51.995,86.242 58.934,79.384 59.05,70.937ZM82.287,24.892L82.289,24.892C83.008,24.894 83.591,25.479 83.591,26.199C83.591,26.922 83.005,27.509 82.285,27.509C81.564,27.509 80.978,26.922 80.978,26.199C80.978,25.477 81.562,24.892 82.284,24.892L82.287,24.892ZM96.148,100.183L96.148,102.818L68.422,102.818L68.422,100.183C68.422,98.731 69.602,97.548 71.053,97.548L93.519,97.548C94.969,97.549 96.148,98.731 96.148,100.183ZM80.186,85.724L82.284,63.91L84.381,85.724L80.186,85.724ZM121.021,79.869C117.154,79.869 113.824,77.431 112.497,74.007L129.547,74.007C128.216,77.431 124.89,79.869 121.021,79.869ZM128.866,67.638L113.174,67.638L117.388,55.52L121.023,46.421L124.603,55.385L128.866,67.638ZM39.915,55.518L43.551,46.42L47.133,55.383L51.396,67.636L35.704,67.636L39.915,55.518ZM43.552,79.869C39.685,79.869 36.355,77.431 35.028,74.007L52.079,74.007C50.746,77.431 47.418,79.869 43.552,79.869Z" fill="#000000"/>
</svg>
