<svg width="116" height="118" viewBox="0 0 116 118" fill="none" xmlns="http://www.w3.org/2000/svg" xmlns:xlink="http://www.w3.org/1999/xlink">
<path d="M116,6.839L116,111.134C116,114.72 113.126,117.599 109.604,117.599L80.035,117.599L80.035,72.217L95.104,72.217L97.357,54.525L80.009,54.525L80.009,43.218C80.009,38.089 81.407,34.608 88.683,34.608L97.953,34.608L97.953,18.774C96.347,18.564 90.858,18.067 84.437,18.067C71.076,18.067 61.91,26.311 61.91,41.465L61.91,54.525L46.788,54.525L46.788,72.217L61.91,72.217L61.91,117.625L6.396,117.625C2.874,117.625 0,114.72 0,111.161L0,6.839C0,3.28 2.874,0.375 6.396,0.375L109.579,0.375C113.126,0.375 116,3.28 116,6.839Z" fill="#000000"/>
</svg>
