<svg width="208" height="160" viewBox="0 0 208 160" fill="none" xmlns="http://www.w3.org/2000/svg" xmlns:xlink="http://www.w3.org/1999/xlink">
<path d="M167.41,53.705L167.41,52.594C167.41,36.891 134.226,28.667 101.451,28.667C68.676,28.667 35.492,36.889 35.492,52.594L35.492,53.705L0,39.778L101.454,0L202.908,39.778L167.41,53.705ZM101.451,36.076C65.737,36.076 42.93,45.853 42.93,52.595L42.931,88.111C44.122,87.296 45.424,86.519 46.838,85.741L46.876,85.741C47.395,85.445 47.954,85.186 48.513,84.926L48.512,84.928C51.594,83.542 54.763,82.354 57.997,81.372C58.406,81.261 58.816,81.15 59.261,81.002C59.521,80.929 59.781,80.855 60.08,80.78C60.787,80.557 61.494,80.372 62.237,80.187C64.878,79.521 67.594,78.928 70.458,78.447C72.691,78.002 74.998,77.67 77.303,77.373C78.531,77.188 79.759,77.039 80.986,76.928C84.483,76.558 88.054,76.262 91.588,76.077C94.861,75.892 98.135,75.818 101.446,75.818C104.758,75.818 108.031,75.892 111.305,76.077C114.838,76.262 118.411,76.558 121.906,76.928C123.135,77.039 124.361,77.187 125.589,77.373C127.896,77.67 130.203,78.004 132.434,78.447C135.298,78.93 138.016,79.521 140.655,80.187C141.398,80.372 142.105,80.557 142.812,80.78C143.11,80.853 143.37,80.927 143.631,81.002C144.077,81.151 144.486,81.263 144.895,81.372L144.902,81.372C148.138,82.354 151.307,83.542 154.389,84.928C154.947,85.186 155.506,85.445 156.027,85.743L156.065,85.743C157.479,86.52 158.781,87.298 159.971,88.113L159.97,52.594C159.97,45.853 137.165,36.074 101.448,36.074L101.451,36.076ZM159.378,97.74C159.242,97.509 159.092,97.286 158.931,97.074C158.745,96.851 158.559,96.628 158.336,96.37L157.555,95.592C157.235,95.303 156.899,95.031 156.55,94.777C155.917,94.296 155.174,93.815 154.393,93.333C153.983,93.111 153.574,92.85 153.128,92.63C152.681,92.409 152.198,92.147 151.714,91.926C151.455,91.778 151.157,91.665 150.822,91.48L150.82,91.48C150.61,91.426 150.409,91.338 150.225,91.222C144.252,88.648 137.977,86.831 131.55,85.813C131.256,85.735 130.958,85.673 130.657,85.628C130.769,85.666 130.917,85.702 131.067,85.74C130.921,85.697 130.771,85.673 130.62,85.666C129.206,85.408 127.755,85.149 126.23,84.926C125.151,84.779 124.035,84.63 122.918,84.481C120.166,84.111 117.264,83.851 114.212,83.666L114.214,83.666C114.104,83.635 113.992,83.623 113.878,83.628C112.911,83.554 111.943,83.481 110.938,83.443C109.972,83.405 109.003,83.37 108,83.332C105.879,83.258 103.684,83.221 101.453,83.221C99.22,83.221 97.025,83.256 94.906,83.332C93.902,83.37 92.935,83.405 91.968,83.443C90.963,83.481 89.997,83.554 89.028,83.628L89.026,83.628C88.915,83.623 88.801,83.635 88.693,83.666C85.643,83.851 82.741,84.111 79.986,84.481C78.87,84.63 77.754,84.777 76.675,84.926C75.149,85.149 73.699,85.408 72.285,85.666C72.135,85.673 71.984,85.697 71.84,85.74C71.987,85.702 72.137,85.666 72.249,85.628C71.948,85.673 71.65,85.735 71.356,85.813C64.928,86.831 58.654,88.648 52.68,91.222C52.498,91.338 52.296,91.426 52.085,91.48C51.751,91.665 51.452,91.777 51.192,91.926C50.707,92.148 50.225,92.409 49.778,92.63C49.331,92.85 48.923,93.111 48.514,93.333C47.733,93.815 46.988,94.296 46.356,94.777C46.007,95.031 45.67,95.303 45.35,95.592L44.569,96.37C44.345,96.63 44.16,96.853 43.974,97.074C43.812,97.286 43.664,97.509 43.528,97.74C43.275,98.149 43.1,98.601 43.009,99.072C42.966,99.28 42.94,99.49 42.933,99.703C42.933,106.443 65.738,116.222 101.455,116.222C137.168,116.222 159.976,106.445 159.976,99.703C159.969,99.49 159.943,99.28 159.9,99.072C159.809,98.601 159.634,98.149 159.381,97.74L159.378,97.74ZM208,117.89C207.988,115.232 207.126,112.648 205.542,110.511C203.956,108.373 201.73,106.794 199.182,106L199.182,49.185L191.742,52.111L191.742,105.998C187.567,107.294 184.378,110.666 183.329,114.893C182.278,119.118 183.521,123.583 186.609,126.666C184.27,128.978 182.957,132.125 182.962,135.407L182.962,156.296C182.969,158.339 184.631,159.993 186.683,160L204.28,160C206.332,159.993 207.994,158.339 208,156.296L208,135.407C208.006,132.126 206.692,128.978 204.354,126.666C206.686,124.333 207.994,121.178 208,117.888L208,117.89Z" fill="#000000"/>
</svg>
